<?xml version="1.0" encoding="UTF-8" standalone="no"?>
<!DOCTYPE svg PUBLIC "-//W3C//DTD SVG 1.1//EN" "http://www.w3.org/Graphics/SVG/1.1/DTD/svg11.dtd">
<svg version="1.1" xmlns="http://www.w3.org/2000/svg" xmlns:xlink="http://www.w3.org/1999/xlink" preserveAspectRatio="xMidYMid meet" viewBox="0 0 640 640" width="640" height="640"><defs><path d="M0 198L493 198L493 510L0 510L0 198Z" id="d2mIXDxscc"></path><path d="M0 198L164 198L164 510L0 510L0 198Z" id="a1QOzIKJQ"></path><path d="M33.34 433.5L33.48 432.16L33.63 430.83L33.8 429.5L33.98 428.17L34.18 426.84L34.39 425.52L34.62 424.2L34.87 422.88L35.12 421.57L35.39 420.26L35.68 418.96L35.98 417.65L36.3 416.36L36.63 415.06L36.98 413.77L37.34 412.48L37.71 411.2L38.1 409.92L38.5 408.65L38.92 407.38L39.35 406.12L39.8 404.86L40.26 403.61L40.73 402.36L41.22 401.11L41.72 399.88L42.24 398.64L42.77 397.42L43.32 396.2L43.87 394.98L44.45 393.77L45.03 392.57L45.63 391.37L46.25 390.18L46.88 388.99L47.52 387.82L48.17 386.65L48.84 385.48L49.53 384.32L49.53 384.32L50.31 383L51.07 381.66L51.81 380.31L52.52 378.96L53.22 377.59L53.9 376.22L54.55 374.83L55.19 373.44L55.8 372.04L56.39 370.64L56.97 369.22L57.52 367.8L58.05 366.37L58.55 364.93L59.04 363.48L59.51 362.03L59.95 360.58L60.37 359.11L60.77 357.64L61.15 356.17L61.51 354.69L61.85 353.2L62.16 351.71L62.46 350.22L62.73 348.72L62.97 347.21L63.2 345.7L63.41 344.19L63.59 342.68L63.75 341.16L63.89 339.64L64 338.11L64.09 336.59L64.16 335.06L64.21 333.53L64.24 331.99L64.24 330.46L64.22 328.92L64.18 327.39L64.13 326.19L63.89 325.77L99.89 325.85L99.89 325.85L99.82 327.71L99.77 329.58L99.76 331.44L99.79 333.3L99.84 335.15L99.94 337L100.06 338.85L100.21 340.7L100.4 342.54L100.62 344.38L100.88 346.21L101.16 348.03L101.48 349.85L101.83 351.67L102.22 353.47L102.63 355.27L103.08 357.06L103.56 358.85L104.07 360.62L104.61 362.39L105.18 364.14L105.79 365.89L106.42 367.62L107.09 369.35L107.79 371.06L108.52 372.77L109.28 374.46L110.07 376.13L110.89 377.8L111.74 379.45L112.62 381.09L113.54 382.71L114.48 384.32L114.48 384.32L115.31 385.73L116.11 387.14L116.9 388.57L117.66 390L118.41 391.44L119.13 392.89L119.84 394.36L120.52 395.83L121.19 397.31L121.83 398.79L122.45 400.29L123.05 401.79L123.64 403.3L124.2 404.82L124.73 406.35L125.25 407.88L125.75 409.42L126.23 410.97L126.68 412.52L127.12 414.08L127.53 415.65L127.92 417.22L128.29 418.8L128.64 420.38L128.96 421.97L129.27 423.56L129.55 425.16L129.81 426.76L130.05 428.37L130.27 429.98L130.46 431.59L130.64 433.21L130.79 434.83L131.84 447.02L32.17 447.02L33.22 434.83L33.34 433.5Z" id="a18WzjLyxh"></path><path d="M123.56 317.12C123.56 325.5 104.94 332.31 82 332.31C59.07 332.31 40.45 325.5 40.45 317.12C40.45 308.74 59.07 301.93 82 301.93C104.94 301.93 123.56 308.74 123.56 317.12Z" id="cGMFoVlnO"></path><path d="M116.38 308.68C116.38 313.93 100.98 318.2 82 318.2C63.03 318.2 47.62 313.93 47.62 308.68C47.62 303.43 63.03 299.17 82 299.17C100.98 299.17 116.38 303.43 116.38 308.68Z" id="c7Syeigwi"></path><path d="M120.73 273.57C120.73 293.23 103.37 309.18 82 309.18C60.63 309.18 43.28 293.23 43.28 273.57C43.28 253.92 60.63 237.96 82 237.96C103.37 237.96 120.73 253.92 120.73 273.57Z" id="b6V6qteIQ"></path><path d="M132.07 447.84C132.07 460.09 109.64 470.04 82 470.04C54.37 470.04 31.93 460.09 31.93 447.84C31.93 435.58 54.37 425.63 82 425.63C109.64 425.63 132.07 435.58 132.07 447.84Z" id="a4Ll2G63Cq"></path><path d="M142 423.7C142 437.74 115.11 449.13 82 449.13C48.89 449.13 22 437.74 22 423.7C22 409.67 48.89 398.27 82 398.27C115.11 398.27 142 409.67 142 423.7Z" id="c39eng6Rv"></path><path d="M135.92 410.51C135.92 422.9 111.76 432.96 82 432.96C52.24 432.96 28.08 422.9 28.08 410.51C28.08 398.12 52.24 388.06 82 388.06C111.76 388.06 135.92 398.12 135.92 410.51Z" id="bwisUlNqy"></path></defs><g><g><g><use xlink:href="#d2mIXDxscc" opacity="1" fill="#ffffff" fill-opacity="1"></use><g><use xlink:href="#d2mIXDxscc" opacity="1" fill-opacity="0" stroke="#4087b7" stroke-width="0" stroke-opacity="1"></use></g><g><filter id="shadow11532451" x="-7" y="191" width="508" height="326" filterUnits="userSpaceOnUse" primitiveUnits="userSpaceOnUse"><feFlood></feFlood><feComposite in2="SourceAlpha" operator="out"></feComposite><feGaussianBlur stdDeviation="0"></feGaussianBlur><feOffset dx="1" dy="0" result="afterOffset"></feOffset><feFlood flood-color="#ffffff" flood-opacity="0.8"></feFlood><feComposite in2="afterOffset" operator="in"></feComposite><feMorphology operator="dilate" radius="1"></feMorphology><feComposite in2="SourceAlpha" operator="in"></feComposite></filter><path d="M0 198L493 198L493 510L0 510L0 198Z" id="f3nRaPoTKo" fill="white" fill-opacity="1" filter="url(#shadow11532451)"></path></g></g><g><use xlink:href="#a1QOzIKJQ" opacity="1" fill="#0089e9" fill-opacity="1"></use><g><use xlink:href="#a1QOzIKJQ" opacity="1" fill-opacity="0" stroke="#61c6a7" stroke-width="0" stroke-opacity="1"></use></g></g><g><g><use xlink:href="#a18WzjLyxh" opacity="1" fill="#ffffff" fill-opacity="1"></use><g><use xlink:href="#a18WzjLyxh" opacity="1" fill-opacity="0" stroke="#000000" stroke-width="0" stroke-opacity="1"></use></g></g><g><g><use xlink:href="#cGMFoVlnO" opacity="1" fill="#ffffff" fill-opacity="1"></use><g><use xlink:href="#cGMFoVlnO" opacity="1" fill-opacity="0" stroke="#ec1439" stroke-width="0" stroke-opacity="1"></use></g></g><g><use xlink:href="#c7Syeigwi" opacity="1" fill="#ffffff" fill-opacity="1"></use><g><use xlink:href="#c7Syeigwi" opacity="1" fill-opacity="0" stroke="#03c6ed" stroke-width="0" stroke-opacity="1"></use></g></g><g><use xlink:href="#b6V6qteIQ" opacity="1" fill="#ffffff" fill-opacity="1"></use><g><use xlink:href="#b6V6qteIQ" opacity="1" fill-opacity="0" stroke="#bdcf55" stroke-width="0" stroke-opacity="1"></use></g></g></g><g><use xlink:href="#a4Ll2G63Cq" opacity="1" fill="#ffffff" fill-opacity="1"></use><g><use xlink:href="#a4Ll2G63Cq" opacity="1" fill-opacity="0" stroke="#c5351a" stroke-width="0" stroke-opacity="1"></use></g></g><g><g><use xlink:href="#c39eng6Rv" opacity="1" fill="#ffffff" fill-opacity="1"></use><g><use xlink:href="#c39eng6Rv" opacity="1" fill-opacity="0" stroke="#f2f302" stroke-width="0" stroke-opacity="1"></use></g></g><g><use xlink:href="#bwisUlNqy" opacity="1" fill="#ffffff" fill-opacity="1"></use><g><use xlink:href="#bwisUlNqy" opacity="1" fill-opacity="0" stroke="#f2f302" stroke-width="0" stroke-opacity="1"></use></g></g></g></g></g></g></svg>