<?xml version="1.0" encoding="UTF-8" standalone="no"?>
<!DOCTYPE svg PUBLIC "-//W3C//DTD SVG 1.1//EN" "http://www.w3.org/Graphics/SVG/1.1/DTD/svg11.dtd">
<svg version="1.1" xmlns="http://www.w3.org/2000/svg" xmlns:xlink="http://www.w3.org/1999/xlink" preserveAspectRatio="xMidYMid meet" viewBox="0 0 640 640" width="640" height="640"><defs><path d="M-1 0L492 0L492 58L-1 58L-1 0Z" id="a1CELIAh5"></path><path d="M472.35 29C472.35 41.37 462.31 51.41 449.94 51.41C437.57 51.41 427.53 41.37 427.53 29C427.53 16.63 437.57 6.59 449.94 6.59C462.31 6.59 472.35 16.63 472.35 29Z" id="cRoXtE47K"></path><path d="M443.36 38.92L443.61 37.72L443.94 36.54L444.36 35.38L444.87 34.26L445.46 33.18L445.46 33.18L446.12 31.94L446.66 30.64L447.07 29.3L447.34 27.93L447.47 26.53L447.47 25.16L447.44 25.11L452.41 25.12L452.46 27.23L452.82 29.3L453.47 31.29L454.42 33.18L454.42 33.18L455.28 34.82L455.94 36.54L456.41 38.32L456.67 40.15L456.81 41.83L443.07 41.83L443.21 40.15L443.36 38.92Z" id="bDsphZad5"></path><path d="M455.67 23.91C455.67 25.07 453.1 26.01 449.94 26.01C446.78 26.01 444.21 25.07 444.21 23.91C444.21 22.76 446.78 21.82 449.94 21.82C453.1 21.82 455.67 22.76 455.67 23.91Z" id="a2KtnX4WFk"></path><path d="M454.68 22.75C454.68 23.48 452.56 24.06 449.94 24.06C447.32 24.06 445.2 23.48 445.2 22.75C445.2 22.03 447.32 21.44 449.94 21.44C452.56 21.44 454.68 22.03 454.68 22.75Z" id="d4LFuJs9aX"></path><path d="M455.28 17.91C455.28 20.62 452.89 22.82 449.94 22.82C446.99 22.82 444.6 20.62 444.6 17.91C444.6 15.2 446.99 13 449.94 13C452.89 13 455.28 15.2 455.28 17.91Z" id="a28tGJL5Cx"></path><path d="M456.85 41.94C456.85 43.63 453.75 45 449.94 45C446.13 45 443.04 43.63 443.04 41.94C443.04 40.25 446.13 38.88 449.94 38.88C453.75 38.88 456.85 40.25 456.85 41.94Z" id="ga3zYgqA0"></path><path d="M458.22 38.61C458.22 40.55 454.51 42.12 449.94 42.12C445.37 42.12 441.67 40.55 441.67 38.61C441.67 36.68 445.37 35.1 449.94 35.1C454.51 35.1 458.22 36.68 458.22 38.61Z" id="ejivV9QWF"></path><path d="M457.38 36.79C457.38 38.5 454.04 39.89 449.94 39.89C445.84 39.89 442.5 38.5 442.5 36.79C442.5 35.08 445.84 33.7 449.94 33.7C454.04 33.7 457.38 35.08 457.38 36.79Z" id="b47hpKOMkN"></path></defs><g><g><g><use xlink:href="#a1CELIAh5" opacity="1" fill="#ffffff" fill-opacity="1"></use></g><g><g><use xlink:href="#cRoXtE47K" opacity="1" fill="#ffffff" fill-opacity="0"></use><g><use xlink:href="#cRoXtE47K" opacity="1" fill-opacity="0" stroke="#202020" stroke-width="2" stroke-opacity="1"></use></g></g><g><g><use xlink:href="#bDsphZad5" opacity="1" fill="#202020" fill-opacity="1"></use><g><use xlink:href="#bDsphZad5" opacity="1" fill-opacity="0" stroke="#000000" stroke-width="0" stroke-opacity="1"></use></g></g><g><g><use xlink:href="#a2KtnX4WFk" opacity="1" fill="#202020" fill-opacity="1"></use><g><use xlink:href="#a2KtnX4WFk" opacity="1" fill-opacity="0" stroke="#ec1439" stroke-width="0" stroke-opacity="1"></use></g></g><g><use xlink:href="#d4LFuJs9aX" opacity="1" fill="#202020" fill-opacity="1"></use><g><use xlink:href="#d4LFuJs9aX" opacity="1" fill-opacity="0" stroke="#03c6ed" stroke-width="0" stroke-opacity="1"></use></g></g><g><use xlink:href="#a28tGJL5Cx" opacity="1" fill="#202020" fill-opacity="1"></use><g><use xlink:href="#a28tGJL5Cx" opacity="1" fill-opacity="0" stroke="#bdcf55" stroke-width="0" stroke-opacity="1"></use></g></g></g><g><use xlink:href="#ga3zYgqA0" opacity="1" fill="#202020" fill-opacity="1"></use><g><use xlink:href="#ga3zYgqA0" opacity="1" fill-opacity="0" stroke="#c5351a" stroke-width="0" stroke-opacity="1"></use></g></g><g><g><use xlink:href="#ejivV9QWF" opacity="1" fill="#202020" fill-opacity="1"></use><g><use xlink:href="#ejivV9QWF" opacity="1" fill-opacity="0" stroke="#f2f302" stroke-width="0" stroke-opacity="1"></use></g></g><g><use xlink:href="#b47hpKOMkN" opacity="1" fill="#202020" fill-opacity="1"></use><g><use xlink:href="#b47hpKOMkN" opacity="1" fill-opacity="0" stroke="#f2f302" stroke-width="0" stroke-opacity="1"></use></g></g></g></g></g></g></g></svg>