<?xml version="1.0" encoding="UTF-8" standalone="no"?>
<!DOCTYPE svg PUBLIC "-//W3C//DTD SVG 1.1//EN" "http://www.w3.org/Graphics/SVG/1.1/DTD/svg11.dtd">
<svg version="1.1" xmlns="http://www.w3.org/2000/svg" xmlns:xlink="http://www.w3.org/1999/xlink" preserveAspectRatio="xMidYMid meet" viewBox="0 0 640 640" width="640" height="640"><defs><path d="M630.95 320C630.95 491.62 491.62 630.95 320 630.95C148.38 630.95 9.05 491.62 9.05 320C9.05 148.38 148.38 9.05 320 9.05C491.62 9.05 630.95 148.38 630.95 320Z" id="a6Q24iFSF"></path><path d="M222.81 483.69L223.09 481.02L223.39 478.36L223.73 475.7L224.09 473.05L224.49 470.4L224.91 467.76L225.37 465.12L225.85 462.49L226.37 459.87L226.91 457.26L227.48 454.65L228.09 452.05L228.72 449.46L229.38 446.87L230.07 444.29L230.79 441.72L231.53 439.16L232.31 436.61L233.12 434.07L233.95 431.53L234.81 429.01L235.7 426.5L236.62 423.99L237.57 421.5L238.55 419.01L239.55 416.54L240.58 414.08L241.64 411.63L242.73 409.19L243.85 406.76L244.99 404.35L246.16 401.94L247.36 399.55L248.59 397.17L249.85 394.81L251.13 392.46L252.44 390.12L253.77 387.79L255.14 385.48L255.14 385.48L256.7 382.83L258.21 380.16L259.69 377.47L261.12 374.76L262.51 372.04L263.87 369.29L265.17 366.53L266.44 363.75L267.67 360.96L268.85 358.14L269.99 355.32L271.09 352.48L272.15 349.62L273.17 346.75L274.14 343.86L275.07 340.96L275.96 338.05L276.8 335.13L277.6 332.19L278.36 329.25L279.07 326.29L279.75 323.32L280.37 320.35L280.96 317.36L281.5 314.37L281.99 311.36L282.45 308.35L282.85 305.33L283.22 302.31L283.54 299.27L283.81 296.23L284.04 293.19L284.23 290.14L284.37 287.09L284.47 284.03L284.52 280.97L284.53 277.91L284.49 274.84L284.4 271.77L284.3 269.38L283.83 268.55L355.73 268.7L355.73 268.7L355.6 271.77L355.51 274.84L355.47 277.91L355.48 280.97L355.53 284.03L355.63 287.09L355.77 290.14L355.95 293.19L356.19 296.23L356.46 299.27L356.78 302.31L357.14 305.33L357.55 308.35L358.01 311.36L358.5 314.37L359.04 317.36L359.63 320.35L360.25 323.32L360.93 326.29L361.64 329.25L362.4 332.19L363.2 335.13L364.04 338.05L364.93 340.96L365.86 343.86L366.83 346.75L367.85 349.62L368.9 352.48L370 355.32L371.15 358.14L372.33 360.96L373.56 363.75L374.82 366.53L376.13 369.29L377.49 372.04L378.88 374.76L380.31 377.47L381.79 380.16L383.3 382.83L384.86 385.48L384.86 385.48L386.23 387.79L387.56 390.12L388.87 392.46L390.15 394.81L391.41 397.17L392.63 399.55L393.83 401.94L395.01 404.35L396.15 406.76L397.27 409.19L398.36 411.63L399.42 414.08L400.45 416.54L401.45 419.01L402.43 421.5L403.38 423.99L404.3 426.5L405.19 429.01L406.05 431.53L406.88 434.07L407.69 436.61L408.46 439.16L409.21 441.72L409.93 444.29L410.62 446.87L411.28 449.46L411.91 452.05L412.52 454.65L413.09 457.26L413.63 459.87L414.15 462.49L414.63 465.12L415.09 467.76L415.51 470.4L415.91 473.05L416.27 475.7L416.61 478.36L416.91 481.02L417.19 483.69L417.43 486.36L419.53 510.69L419.53 510.69L220.47 510.69L222.57 486.36L222.81 483.69Z" id="b36itIgG9M"></path><path d="M403 251.26C403 268 365.81 281.6 320 281.6C274.19 281.6 237 268 237 251.26C237 234.52 274.19 220.93 320 220.93C365.81 220.93 403 234.52 403 251.26Z" id="b33oenovkX"></path><path d="M388.67 234.41C388.67 244.9 357.9 253.41 320 253.41C282.1 253.41 251.33 244.9 251.33 234.41C251.33 223.93 282.1 215.41 320 215.41C357.9 215.41 388.67 223.93 388.67 234.41Z" id="a1oRfJvBBP"></path><path d="M397.34 164.29C397.34 203.55 362.68 235.41 320 235.41C277.32 235.41 242.66 203.55 242.66 164.29C242.66 125.04 277.32 93.17 320 93.17C362.68 93.17 397.34 125.04 397.34 164.29Z" id="i1ETgTEAMl"></path><path d="M420 512.33C420 536.8 375.19 556.67 320 556.67C264.81 556.67 220 536.8 220 512.33C220 487.85 264.81 467.98 320 467.98C375.19 467.98 420 487.85 420 512.33Z" id="b2n0dzLo1"></path><path d="M439.84 464.13C439.84 492.16 386.14 514.92 320 514.92C253.86 514.92 200.16 492.16 200.16 464.13C200.16 436.09 253.86 413.33 320 413.33C386.14 413.33 439.84 436.09 439.84 464.13Z" id="dalB7qoWm"></path><path d="M427.7 437.78C427.7 462.53 379.44 482.62 320 482.62C260.56 482.62 212.3 462.53 212.3 437.78C212.3 413.03 260.56 392.94 320 392.94C379.44 392.94 427.7 413.03 427.7 437.78Z" id="crpYJDja4"></path><path d="" id="b4BrAJbhmQ"></path><path d="" id="b11EksVErW"></path><path d="" id="f2frMprDnX"></path><path d="" id="ieVdKN3yj"></path><path d="" id="d2G5SswYAS"></path><path d="" id="c4jORcxLh"></path></defs><g><g><g><use xlink:href="#a6Q24iFSF" opacity="1" fill="#f2f2f2" fill-opacity="1"></use><g><use xlink:href="#a6Q24iFSF" opacity="1" fill-opacity="0" stroke="#404040" stroke-width="16" stroke-opacity="1"></use></g></g><g><use xlink:href="#b36itIgG9M" opacity="1" fill="#202020" fill-opacity="1"></use><g><use xlink:href="#b36itIgG9M" opacity="1" fill-opacity="0" stroke="#000000" stroke-width="1" stroke-opacity="1"></use></g></g><g><g><use xlink:href="#b33oenovkX" opacity="1" fill="#202020" fill-opacity="1"></use></g><g><use xlink:href="#a1oRfJvBBP" opacity="1" fill="#202020" fill-opacity="1"></use></g><g><use xlink:href="#i1ETgTEAMl" opacity="1" fill="#202020" fill-opacity="1"></use></g></g><g><use xlink:href="#b2n0dzLo1" opacity="1" fill="#202020" fill-opacity="1"></use></g><g><g><use xlink:href="#dalB7qoWm" opacity="1" fill="#202020" fill-opacity="1"></use></g><g><use xlink:href="#crpYJDja4" opacity="1" fill="#202020" fill-opacity="1"></use></g></g><g><g><use xlink:href="#b4BrAJbhmQ" opacity="1" fill-opacity="0" stroke="#000000" stroke-width="1" stroke-opacity="1"></use></g></g><g><g><use xlink:href="#b11EksVErW" opacity="1" fill-opacity="0" stroke="#000000" stroke-width="1" stroke-opacity="1"></use></g></g><g><g><use xlink:href="#f2frMprDnX" opacity="1" fill-opacity="0" stroke="#000000" stroke-width="1" stroke-opacity="1"></use></g></g><g><g><use xlink:href="#ieVdKN3yj" opacity="1" fill-opacity="0" stroke="#000000" stroke-width="1" stroke-opacity="1"></use></g></g><g><g><use xlink:href="#d2G5SswYAS" opacity="1" fill-opacity="0" stroke="#000000" stroke-width="1" stroke-opacity="1"></use></g></g><g><g><use xlink:href="#c4jORcxLh" opacity="1" fill-opacity="0" stroke="#000000" stroke-width="1" stroke-opacity="1"></use></g></g></g></g></svg>